# xmcd
#
# Track frame offsets: 
#        150
#        21742
#        43410
#        68854
#        87158
#        106214
#        131484
#        146988
#        169903
#        189085
#        211164
#        230283
#
# Disc length: 3369 seconds
#
# Revision: 0
# Processed by: cddbd v1.5.2PL0 Copyright (c) Steve Scherf et al.
# Submitted via: ExactAudioCopy v1.3
#
DISCID=ac0d270c
DTITLE=David Grissom - 10,000 Feet
DYEAR=2009
DGENRE=Blues Rock
TTITLE0=Keep A Rollin' On
TTITLE1=10,000 Feet
TTITLE2=Sqwawk
TTITLE3=Ain't No Game At All
TTITLE4=Take Me Back To Texas
TTITLE5=Butterbean Friday
TTITLE6=Jet Trails In The Sky
TTITLE7=Gone And Lonesome
TTITLE8=Dover Soul
TTITLE9=Ain't No Other Way
TTITLE10=True Love Don't Work That Way
TTITLE11=Good Day For The Blues
EXTD=
EXTT0=
EXTT1=
EXTT2=
EXTT3=
EXTT4=
EXTT5=
EXTT6=
EXTT7=
EXTT8=
EXTT9=
EXTT10=
EXTT11=
PLAYORDER=
